<?xml version="1.0" encoding="UTF-8" standalone="no"?>
<!-- Generator: Adobe Illustrator 23.0.6, SVG Export Plug-In . SVG Version: 6.00 Build 0)  -->

<svg
   version="1.1"
   id="Layer_1"
   x="0px"
   y="0px"
   viewBox="0 0 323 56.79"
   style="enable-background:new 0 0 323 56.79;"
   xml:space="preserve"
   sodipodi:docname="logo-walid-white.svg"
   inkscape:version="1.3.2 (091e20ef0f, 2023-11-25)"
   xmlns:inkscape="http://www.inkscape.org/namespaces/inkscape"
   xmlns:sodipodi="http://sodipodi.sourceforge.net/DTD/sodipodi-0.dtd"
   xmlns="http://www.w3.org/2000/svg"
   xmlns:svg="http://www.w3.org/2000/svg"
   xmlns:rdf="http://www.w3.org/1999/02/22-rdf-syntax-ns#"
   xmlns:cc="http://creativecommons.org/ns#"
   xmlns:dc="http://purl.org/dc/elements/1.1/"><metadata
   id="metadata933"><rdf:RDF><cc:Work
       rdf:about=""><dc:format>image/svg+xml</dc:format><dc:type
         rdf:resource="http://purl.org/dc/dcmitype/StillImage" /></cc:Work></rdf:RDF></metadata><defs
   id="defs931" /><sodipodi:namedview
   pagecolor="#ffffff"
   bordercolor="#666666"
   borderopacity="1"
   objecttolerance="10"
   gridtolerance="10"
   guidetolerance="10"
   inkscape:pageopacity="0"
   inkscape:pageshadow="2"
   inkscape:window-width="1920"
   inkscape:window-height="1203"
   id="namedview929"
   showgrid="false"
   inkscape:zoom="2.6598599"
   inkscape:cx="170.87366"
   inkscape:cy="33.084449"
   inkscape:window-x="0"
   inkscape:window-y="1320"
   inkscape:window-maximized="1"
   inkscape:current-layer="Layer_1"
   inkscape:showpageshadow="2"
   inkscape:pagecheckerboard="0"
   inkscape:deskcolor="#d1d1d1" />
<style
   type="text/css"
   id="style894">
	.st0{fill:#3F3F3F;}
</style>
<g
   id="g926"
   style="fill:#ffffff">
	<g
   id="g900"
   style="fill:#ffffff">
		<polygon
   class="st0"
   points="38.07,27.85 57.22,47.01 57.22,27.85   "
   id="polygon896"
   style="fill:#ffffff" />
		<path
   class="st0"
   d="M0.43,27.87c0,28.92,12.71,28.92,28.4,28.92V0C13.14,0,0.43,0,0.43,27.87z"
   id="path898"
   style="fill:#ffffff" />
	</g>
	<g
   id="g924"
   style="fill:#ffffff">
		<path
   class="st0"
   d="M96.05,56.15l-3.59-19.21l-3.64,19.21h-6.17l-6.27-27.66h4.87c0.5,0,0.93,0.35,1.03,0.84l3.64,18.35    l3.51-19.2h5.25c0.51,0,0.94,0.36,1.03,0.86l3.31,18.23l3.72-19.09h4.42c0.32,0,0.62,0.14,0.82,0.39c0.2,0.25,0.27,0.57,0.21,0.88    l-5.87,26.39H96.05z"
   id="path902"
   style="fill:#ffffff" />
		<path
   class="st0"
   d="M125.12,56.15l-1.16-5h-8.93l-1.16,5h-6.05l6.94-27.66h8.69c0.48,0,0.9,0.33,1.02,0.79l6.7,26.87H125.12z     M116.05,46.61h6.88l-3.17-13.73h-0.53L116.05,46.61z"
   id="path904"
   style="fill:#ffffff" />
		<path
   class="st0"
   d="M133.73,56.15V28.49h4.86c0.58,0,1.05,0.47,1.05,1.05v21.43h5.8v5.19H133.73z"
   id="path906"
   style="fill:#ffffff" />
		<path
   class="st0"
   d="M148.09,56.15V28.49h4.86c0.58,0,1.05,0.47,1.05,1.05v26.61H148.09z"
   id="path908"
   style="fill:#ffffff" />
		<path
   class="st0"
   d="M158.05,56.15V28.49h9.39c4.92,0,8.4,1.99,10.06,5.75c0.87,1.9,1.18,4.02,1.18,8.08    c0,4.07-0.31,6.18-1.17,8.08c-1.66,3.76-5.14,5.75-10.06,5.75H158.05z M163.95,51.09h2.41c2.76,0,4.51-0.96,5.34-2.93    c0.47-1.03,0.7-2.16,0.7-5.79c0-3.7-0.23-4.84-0.71-5.88c-0.83-1.97-2.58-2.93-5.34-2.93h-2.41V51.09z"
   id="path910"
   style="fill:#ffffff" />
		<path
   class="st0"
   d="M199.11,56.79c-4.78,0-8.24-2.11-10.02-6.11c-0.89-1.97-1.21-4.24-1.21-8.36c0-4.12,0.33-6.39,1.21-8.36    c1.78-4,5.25-6.11,10.06-6.11c2.96,0,5.48,0.87,7.29,2.52c1.81,1.66,2.77,3.97,2.93,7.06h-5.99c-0.14-1.65-0.54-2.67-1.31-3.4    c-0.75-0.66-1.78-1-3.08-1c-2.03,0-3.38,0.84-4.14,2.57c-0.56,1.29-0.7,2.67-0.7,6.71s0.14,5.42,0.7,6.71    c0.78,1.73,2.23,2.57,4.42,2.57c1.97,0,3.33-0.77,4.02-2.29c0.3-0.72,0.42-1.33,0.47-3.27l0.01-0.29h-4.44v-4.27h10.27v1.87    c0,3.58-0.36,5.87-1.26,7.88C206.64,54.98,203.62,56.79,199.11,56.79z"
   id="path912"
   style="fill:#ffffff" />
		<path
   class="st0"
   d="M226.99,56.15V44.52h-8.09v11.64H213V28.49h4.86c0.58,0,1.05,0.47,1.05,1.05v9.95h8.09v-11h4.86    c0.58,0,1.05,0.47,1.05,1.05v26.61H226.99z"
   id="path914"
   style="fill:#ffffff" />
		<path
   class="st0"
   d="M252.65,56.15l-1.16-5h-8.93l-1.16,5h-6.05l6.94-27.66h8.69c0.48,0,0.9,0.33,1.02,0.79l6.7,26.87H252.65z     M243.58,46.61h6.88l-3.17-13.73h-0.53L243.58,46.61z"
   id="path916"
   style="fill:#ffffff" />
		<path
   class="st0"
   d="M260.25,56.15l9.32-22.71h-8.86v-4.95h15.85c0.35,0,0.67,0.17,0.87,0.46c0.2,0.29,0.23,0.65,0.1,0.98    l-8.65,21.27h9.9v4.95H260.25z"
   id="path918"
   style="fill:#ffffff" />
		<path
   class="st0"
   d="M280.36,56.15l9.32-22.71h-8.86v-4.95h15.85c0.35,0,0.67,0.17,0.87,0.46c0.2,0.29,0.23,0.65,0.1,0.98    l-8.65,21.27h9.9v4.95H280.36z"
   id="path920"
   style="fill:#ffffff" />
		<path
   class="st0"
   d="M311.77,56.79c-4.78,0-8.21-2.06-9.94-5.95c-0.93-2.11-1.29-4.5-1.29-8.52c0-4.02,0.36-6.41,1.3-8.52    c1.72-3.89,5.16-5.95,9.94-5.95c4.78,0,8.21,2.06,9.94,5.95c0.93,2.11,1.29,4.5,1.29,8.52c0,4.02-0.36,6.41-1.3,8.52    C319.98,54.74,316.54,56.79,311.77,56.79z M311.77,33.2c-2.07,0-3.47,0.89-4.3,2.73c-0.53,1.18-0.67,2.49-0.67,6.4    c0,3.79,0.15,5.16,0.71,6.4c0.83,1.84,2.22,2.73,4.26,2.73c2.04,0,3.43-0.89,4.26-2.73c0.57-1.27,0.75-2.77,0.75-6.4    c0-3.79-0.15-5.16-0.7-6.4C315.24,34.09,313.84,33.2,311.77,33.2z"
   id="path922"
   style="fill:#ffffff" />
	</g>
</g>
</svg>
